# ProBuilder 5.0.7
# https://unity3d.com/unity/features/worldbuilding/probuilder
# 2023-05-24 8:21:26 AM

mtllib ./Wall_(10).mtl
o Wall (10)

g Wall (10)
v 27.05323 -0.09195 6.937827
v 27.05323 0.4871562 6.937827
v 32.56997 1.79195 6.937827
v 32.56997 -0.09195 6.937827
v 27.05323 0.4871562 -7.775028
v 32.56997 1.79195 -7.775028
v 27.05323 -0.09195 -7.775027
v 32.56997 -0.09195 -7.775028
v 42.24816 -0.09195 6.937827
v 42.24816 1.79195 6.937827
v 42.24816 1.79195 -7.775029
v 42.24816 -0.09195 -7.775029
v 35.21451 -0.09195 6.937827
v 35.21451 1.407419 6.937827
v 35.21451 1.407419 -7.775029
v 35.21451 -0.09195 -7.775029
v 35.21451 -0.09195 16.51375
v 35.21451 1.79195 16.51375
v 42.24816 -0.09195 16.51375
v 42.24816 1.79195 16.51375

vt 0 0
vt 0 1
vt 1 1
vt 1 0
vt 0.5040779 -0.5
vt 0.5040779 0.5
vt 0.9853978 -0.5
vt 0.9853978 0.2958857
vt -0.2688648 0.5
vt -0.2688648 -0.5000001
vt -0.791676 0.5
vt -0.7916761 -0.5000001
vt -0.5040779 0.5
vt -0.5040779 -0.5
vt -0.9853979 0.2958857
vt -0.9853979 -0.5
vt 0.9853978 0.5
vt 2.265562 -0.5
vt 2.265562 0.5
vt -1.019695 0.5
vt -1.019695 -0.5000001
vt -2.316029 0.5
vt -2.316029 -0.5000001
vt -2.265562 0.5
vt -2.265562 -0.5
vt 0.5 -0.5
vt 0.5 0.2958857
vt 1.150854 -0.5
vt 1.150854 0.5
vt 2.265562 1.150854
vt 0.9853978 1.150854
vt -1.019695 0.5181604
vt -2.316029 0.5181604
vt -1.051834 1.199513
vt -2.265562 1.150854
vt -0.9853978 1.150854
vt -0.5 0.5
vt -0.5 -0.5
vt -1.150854 0.5
vt -1.150854 -0.5

vn 0 0 14.71285
vn -3.11973 1.550753 0
vn -3.261581E-07 -3.652898E-07 -14.71285
vn 0 -1.8839 0
vn 5.494339 0 0
vn -5.494339 1.09587E-06 0
vn 2.145083 1.73439 0
vn -0.8651115 1.860401 0
vn -0.8263881 1.777127 -4.352584
vn 0 1.8839 0

usemtl Collider
f 3/3/1 2/2/1 1/1/1
f 4/4/1 3/3/1 1/1/1
f 6/3/2 5/2/2 2/1/2
f 3/4/2 6/3/2 2/1/2
f 8/3/3 7/2/3 5/1/3
f 6/4/3 8/3/3 5/1/3
f 4/3/4 1/2/4 7/1/4
f 8/4/4 4/3/4 7/1/4
f 11/3/5 10/2/5 9/1/5
f 12/4/5 11/3/5 9/1/5
f 2/3/6 5/2/6 7/1/6
f 1/4/6 2/3/6 7/1/6
f 13/7/1 3/6/1 4/5/1
f 13/7/1 14/8/1 3/6/1
f 14/11/7 6/10/7 3/9/7
f 14/11/7 15/12/7 6/10/7
f 15/15/3 8/14/3 6/13/3
f 15/15/3 16/16/3 8/14/3
f 16/7/4 4/6/4 8/5/4
f 16/7/4 13/17/4 4/6/4
f 19/18/1 18/17/1 17/7/1
f 19/18/1 20/19/1 18/17/1
f 10/22/8 15/21/8 14/20/8
f 10/22/8 11/23/8 15/21/8
f 11/24/3 16/16/3 15/15/3
f 11/24/3 12/25/3 16/16/3
f 12/18/4 13/17/4 16/7/4
f 12/18/4 9/19/4 13/17/4
f 17/28/6 14/27/6 13/26/6
f 17/28/6 18/29/6 14/27/6
f 19/30/4 13/17/4 9/19/4
f 19/30/4 17/31/4 13/17/4
f 18/34/9 10/33/9 14/32/9
f 18/36/10 20/35/10 10/24/10
f 20/39/5 9/38/5 10/37/5
f 20/39/5 19/40/5 9/38/5

